<svg xmlns="http://www.w3.org/2000/svg" width="179" height="179" viewBox="0 0 179 179"><g id="_1_year" data-name="1_year" transform="translate(-1027 -161)"><path id="Rectangle_68" fill="none" d="M0 0h179v179H0z" data-name="Rectangle 68" transform="translate(1027 161)"/><circle id="Ellipse_22" cx="72.124" cy="72.124" r="72.124" fill="#eeefff" data-name="Ellipse 22" transform="translate(1045.749 172.859)"/><path id="Path_67" fill="#d6def3" d="m-278.563 208.077 9.372-5.958-.051 82.779-8.735 5.863Z" data-name="Path 67" transform="translate(1420.345 31.221)"/><path id="Path_68" fill="#969bee" d="m-355.169 194.6 51.44 10.241.347 83.366-5.894.633-2.427-76.3Z" data-name="Path 68" transform="translate(1445.404 33.679)"/><path id="Path_69" fill="#d6def3" d="m-355.918 194.333 35.943 13.471 10.3 6.553.527 88.756-16.035-12.763-31.017-13.45Z" data-name="Path 69" transform="translate(1445.742 33.768)"/><path id="Path_70" fill="#ccd9f6" d="M-363.851 131.867a10.631 10.631 0 0 0-2.908-7.32 10.635 10.635 0 0 0-7.758-3.346h-4a10.665 10.665 0 0 0-10.665 10.665 12.717 12.717 0 0 0-12.718 12.718 4.746 4.746 0 0 0 4.746 4.746h47.221a4.746 4.746 0 0 0 4.747-4.746 12.717 12.717 0 0 0-12.717-12.717Z" data-name="Path 70" transform="translate(1460.691 57.689)"/><path id="Path_71" fill="#fff" d="M-244.125 214.273c.357 1.069.686 2.013.99 2.965a6.259 6.259 0 0 0 4.272 4.253c.935.3 1.867.624 2.912.975-1.149.386-2.189.726-3.222 1.083a5.92 5.92 0 0 0-3.737 3.558c-.393 1-.7 2.03-1.048 3.046-.042.125-.089.248-.173.478-.356-1.071-.68-2.041-1-3.013a6.093 6.093 0 0 0-3.2-3.768 31.8 31.8 0 0 0-3.194-1.125c-.216-.077-.435-.147-.764-.258.718-.242 1.335-.448 1.95-.658a14.847 14.847 0 0 0 2.09-.777 6.186 6.186 0 0 0 3.134-3.777c.301-.955.631-1.905.99-2.982Z" data-name="Path 71" transform="translate(1411.751 27.245)"/><circle id="Ellipse_2" cx="12.569" cy="12.569" r="12.569" fill="#ccd9f6" data-name="Ellipse 2" transform="translate(1148.612 184.549)"/><path id="Path_72" d="M-296.5 193.833a.673.673 0 0 1-.673-.673v-1.472a.673.673 0 0 1 .673-.673.673.673 0 0 1 .673.673v1.472a.673.673 0 0 1-.673.673Zm0-5.509a.673.673 0 0 1-.673-.673v-2.691a.673.673 0 0 1 .673-.673.673.673 0 0 1 .673.673v2.692a.673.673 0 0 1-.673.672Zm-27.189-.417c-.917-.006-1.819-.018-2.7-.034a.674.674 0 0 1-.66-.686.685.685 0 0 1 .685-.66c.876.016 1.774.028 2.685.034a.673.673 0 0 1 .669.677.674.674 0 0 1-.678.669Zm4.037-.016a.673.673 0 0 1-.672-.663.672.672 0 0 1 .663-.683c.892-.013 1.788-.034 2.682-.063a.674.674 0 0 1 .694.651.674.674 0 0 1-.651.694c-.9.028-1.805.05-2.705.063Zm-10.768-.129h-.024c-.951-.034-1.854-.071-2.7-.11a.672.672 0 0 1-.641-.7.685.685 0 0 1 .7-.641c.84.039 1.738.076 2.683.109a.673.673 0 0 1 .649.7.673.673 0 0 1-.666.642Zm17.5-.126a.673.673 0 0 1-.671-.63.672.672 0 0 1 .628-.715q1.356-.088 2.667-.208a.671.671 0 0 1 .732.608.673.673 0 0 1-.608.732c-.884.082-1.788.151-2.7.211Zm-24.222-.2h-.042c-1.7-.1-2.7-.186-2.7-.186a.673.673 0 0 1-.616-.725.669.669 0 0 1 .725-.616s1 .081 2.677.185a.673.673 0 0 1 .63.713.672.672 0 0 1-.676.628Zm30.917-.493a.673.673 0 0 1-.664-.571.672.672 0 0 1 .563-.767c.93-.143 1.808-.3 2.608-.478a.672.672 0 0 1 .8.515.673.673 0 0 1-.515.8c-.827.18-1.731.346-2.69.493a.663.663 0 0 1-.104.007Zm6.516-1.637a.673.673 0 0 1-.622-.416.672.672 0 0 1 .364-.879 8.244 8.244 0 0 0 2.147-1.229.672.672 0 0 1 .948.081.672.672 0 0 1-.081.948 9.538 9.538 0 0 1-2.5 1.443.667.667 0 0 1-.258.046Z" data-name="Path 72" transform="translate(1440.608 37.598)"/><path id="Path_73" d="M-328.133 329.5a.667.667 0 0 1-.3-.072c-.786-.4-1.591-.786-2.406-1.166a.674.674 0 0 1-.325-.895.672.672 0 0 1 .895-.324c.827.386 1.645.781 2.442 1.184a.673.673 0 0 1 .3.9.673.673 0 0 1-.606.373Zm-6.115-2.821a.677.677 0 0 1-.264-.054c-.839-.359-1.668-.7-2.477-1.031a.673.673 0 0 1-.37-.877.671.671 0 0 1 .877-.37c.816.331 1.653.68 2.5 1.04a.672.672 0 0 1 .355.883.673.673 0 0 1-.621.411Zm-6.25-2.513a.678.678 0 0 1-.239-.044c-.918-.349-1.767-.663-2.518-.936a.673.673 0 0 1-.4-.863.674.674 0 0 1 .862-.4c.757.275 1.611.591 2.536.943a.673.673 0 0 1 .39.868.674.674 0 0 1-.633.434Zm-6.337-2.307a.669.669 0 0 1-.264-.054l-2.476-1.056a.672.672 0 0 1-.355-.883.674.674 0 0 1 .883-.355l2.476 1.056a.674.674 0 0 1 .355.883.674.674 0 0 1-.618.411Zm-6.189-2.64a.677.677 0 0 1-.264-.054l-2.476-1.056a.673.673 0 0 1-.355-.884.673.673 0 0 1 .884-.355l2.476 1.056a.672.672 0 0 1 .355.883.673.673 0 0 1-.62.412Z" data-name="Path 73" transform="translate(1445.732 -6.298)"/><path id="Path_74" d="M-310.281 303.147a.672.672 0 0 1-.487-.208l-1.861-1.945a.673.673 0 0 1 .022-.951.674.674 0 0 1 .951.021l1.861 1.945a.673.673 0 0 1-.021.951.673.673 0 0 1-.465.187Zm1.239-.917a.673.673 0 0 1-.673-.669l-.015-2.692a.673.673 0 0 1 .669-.677.673.673 0 0 1 .673.67l.015 2.692a.673.673 0 0 1-.669.676Zm-5.892-3.944a.672.672 0 0 1-.486-.208l-.417-.435a34.666 34.666 0 0 0-1.513-1.323.673.673 0 0 1-.09-.947.675.675 0 0 1 .947-.09c.55.455 1.089.927 1.6 1.4l.444.462a.673.673 0 0 1-.021.951.673.673 0 0 1-.464.189Zm5.855-2.784a.673.673 0 0 1-.673-.67l-.015-2.692a.673.673 0 0 1 .669-.676.673.673 0 0 1 .673.669l.015 2.692a.673.673 0 0 1-.669.677Zm-11.088-1.427a.665.665 0 0 1-.372-.113 45.186 45.186 0 0 0-2.251-1.4.673.673 0 0 1-.241-.921.672.672 0 0 1 .921-.242c.8.47 1.582.956 2.316 1.444a.672.672 0 0 1 .188.933.671.671 0 0 1-.561.298Zm-5.839-3.336a.669.669 0 0 1-.3-.071q-.953-.472-1.924-.921a.673.673 0 0 1-.328-.893.672.672 0 0 1 .893-.328q.989.456 1.958.937a.674.674 0 0 1 .3.9.673.673 0 0 1-.599.376Zm16.889-1.966a.672.672 0 0 1-.673-.67l-.015-2.692a.673.673 0 0 1 .669-.676.673.673 0 0 1 .673.669l.016 2.692a.673.673 0 0 1-.67.677Zm-.038-6.729a.673.673 0 0 1-.673-.67l-.015-2.692a.673.673 0 0 1 .67-.676.662.662 0 0 1 .676.669l.015 2.692a.673.673 0 0 1-.67.677Zm-.038-6.729a.673.673 0 0 1-.673-.669l-.015-2.692a.673.673 0 0 1 .669-.677.673.673 0 0 1 .673.67l.015 2.692a.673.673 0 0 1-.67.676Zm-.038-6.729a.673.673 0 0 1-.673-.669l-.015-2.692a.672.672 0 0 1 .669-.677.673.673 0 0 1 .677.67l.015 2.692a.673.673 0 0 1-.669.676Zm-.038-6.729a.673.673 0 0 1-.673-.669l-.015-2.692a.673.673 0 0 1 .67-.677.673.673 0 0 1 .673.669l.015 2.692a.673.673 0 0 1-.67.676Zm-.038-6.728a.673.673 0 0 1-.673-.67l-.015-2.692a.673.673 0 0 1 .669-.676.673.673 0 0 1 .673.669l.015 2.692a.673.673 0 0 1-.669.677Zm-.037-6.729a.672.672 0 0 1-.673-.67l-.015-2.692a.673.673 0 0 1 .669-.676.673.673 0 0 1 .673.669l.015 2.692a.673.673 0 0 1-.67.677Zm-.038-6.729a.673.673 0 0 1-.673-.669l-.015-2.692a.673.673 0 0 1 .669-.676.673.673 0 0 1 .673.669l.015 2.692a.672.672 0 0 1-.669.677Zm-.037-6.729a.673.673 0 0 1-.673-.67l-.015-2.691a.673.673 0 0 1 .669-.677.673.673 0 0 1 .673.67l.015 2.691a.673.673 0 0 1-.669.677Zm-.038-6.729a.673.673 0 0 1-.673-.669l-.015-2.692a.673.673 0 0 1 .669-.677.673.673 0 0 1 .673.669l.015 2.692a.673.673 0 0 1-.669.676Zm-.038-6.729a.673.673 0 0 1-.673-.669l-.015-2.692a.673.673 0 0 1 .67-.677.672.672 0 0 1 .673.67l.015 2.692a.673.673 0 0 1-.669.676Zm-1.215-6.189a.669.669 0 0 1-.442-.167l-.229-.2a53.135 53.135 0 0 0-1.811-1.507.673.673 0 0 1-.108-.945.672.672 0 0 1 .945-.109c.629.5 1.254 1.021 1.859 1.548l.229.2a.672.672 0 0 1 .065.949.671.671 0 0 1-.506.231Zm-5.32-4.113a.669.669 0 0 1-.376-.115 52.098 52.098 0 0 0-2.24-1.429.672.672 0 0 1-.229-.923.673.673 0 0 1 .924-.229 55.56 55.56 0 0 1 2.3 1.466.673.673 0 0 1 .182.934.674.674 0 0 1-.559.296Zm-5.8-3.4a.667.667 0 0 1-.3-.072c-.786-.4-1.594-.778-2.4-1.137a.673.673 0 0 1-.342-.888.672.672 0 0 1 .888-.342c.829.367 1.658.76 2.463 1.165a.673.673 0 0 1 .3.9.673.673 0 0 1-.61.376Zm-6.181-2.648a.667.667 0 0 1-.226-.04l-2.535-.9a.673.673 0 0 1-.408-.859.672.672 0 0 1 .859-.408l2.537.9a.673.673 0 0 1 .407.86.673.673 0 0 1-.635.449Zm-6.34-2.253a.674.674 0 0 1-.225-.039l-2.536-.9a.673.673 0 0 1-.409-.859.672.672 0 0 1 .86-.408l2.536.9a.673.673 0 0 1 .408.859.673.673 0 0 1-.635.449Zm-6.341-2.254a.676.676 0 0 1-.225-.039l-2.536-.9a.674.674 0 0 1-.409-.859.674.674 0 0 1 .86-.409l2.536.9a.673.673 0 0 1 .408.86.673.673 0 0 1-.635.449Zm-6.341-2.253a.679.679 0 0 1-.225-.039l-2.536-.9a.674.674 0 0 1-.409-.86.674.674 0 0 1 .86-.408l2.536.9a.673.673 0 0 1 .408.859.673.673 0 0 1-.634.45Zm-6.341-2.253a.679.679 0 0 1-.225-.039l-2.536-.9a.673.673 0 0 1-.408-.859.672.672 0 0 1 .859-.408l2.536.9a.672.672 0 0 1 .408.859.673.673 0 0 1-.634.45Z" data-name="Path 74" transform="translate(1445.866 33.917)"/><path id="Path_75" d="M-306.13 289.513a3.344 3.344 0 0 1-.723-.079l-2.134-.472a.674.674 0 0 1-.512-.8.673.673 0 0 1 .8-.512l2.134.472a1.96 1.96 0 0 0 1.661-.388 1.965 1.965 0 0 0 .738-1.539v-78.044a3.518 3.518 0 0 0-2.845-3.449l-49.03-9.493a.673.673 0 0 1-.533-.789.675.675 0 0 1 .789-.533l49.03 9.493a4.867 4.867 0 0 1 3.935 4.77v78.041a3.3 3.3 0 0 1-1.241 2.589 3.305 3.305 0 0 1-2.069.733Z" data-name="Path 75" transform="translate(1445.866 33.917)"/><path id="Path_76" d="M-355.91 277.816a.673.673 0 0 1-.673-.673v-2.692a.673.673 0 0 1 .673-.673.673.673 0 0 1 .673.673v2.692a.673.673 0 0 1-.673.673Zm0-6.729a.673.673 0 0 1-.673-.673v-2.692a.673.673 0 0 1 .673-.673.673.673 0 0 1 .673.673v2.692a.673.673 0 0 1-.673.673Zm0-6.729a.673.673 0 0 1-.673-.673v-2.692a.673.673 0 0 1 .673-.673.673.673 0 0 1 .673.673v2.692a.673.673 0 0 1-.673.674Zm0-6.729a.673.673 0 0 1-.673-.673v-2.692a.673.673 0 0 1 .673-.673.673.673 0 0 1 .673.673v2.692a.673.673 0 0 1-.673.674Zm0-6.729a.673.673 0 0 1-.673-.673v-2.692a.673.673 0 0 1 .673-.673.673.673 0 0 1 .673.673v2.692a.673.673 0 0 1-.673.673Zm0-6.729a.673.673 0 0 1-.673-.673v-2.692a.673.673 0 0 1 .673-.673.673.673 0 0 1 .673.673v2.694a.673.673 0 0 1-.673.672Zm0-6.729a.673.673 0 0 1-.673-.673v-2.692a.673.673 0 0 1 .673-.673.673.673 0 0 1 .673.673v2.692a.673.673 0 0 1-.673.674Zm0-6.729a.673.673 0 0 1-.673-.673v-2.69a.673.673 0 0 1 .673-.673.673.673 0 0 1 .673.673v2.692a.673.673 0 0 1-.673.672Zm0-6.729a.673.673 0 0 1-.673-.673v-2.692a.673.673 0 0 1 .673-.673.673.673 0 0 1 .673.673v2.692a.673.673 0 0 1-.673.674Zm0-6.729a.673.673 0 0 1-.673-.673v-2.692a.673.673 0 0 1 .673-.673.673.673 0 0 1 .673.673v2.692a.673.673 0 0 1-.673.674Zm0-6.729a.673.673 0 0 1-.673-.673v-2.692a.673.673 0 0 1 .673-.673.673.673 0 0 1 .673.673v2.692a.673.673 0 0 1-.673.674Zm0-6.729a.673.673 0 0 1-.673-.673v-2.692a.673.673 0 0 1 .673-.673.673.673 0 0 1 .673.673v2.692a.673.673 0 0 1-.673.676Zm0-6.729a.673.673 0 0 1-.673-.673v-1.848a.673.673 0 0 1 .673-.673.673.673 0 0 1 .673.673v1.853a.673.673 0 0 1-.673.67Z" data-name="Path 76" transform="translate(1445.866 33.917)"/><path id="Path_77" d="M-304.378 286.851a.673.673 0 0 1-.586-.342.673.673 0 0 1 .254-.917l7.78-4.4c.821-.669 1.867-1.865 1.75-4.517l.009-76.316a2.843 2.843 0 0 0-2.781-3.133l-46.558-8.4-11.161 4.249a.674.674 0 0 1-.869-.39.674.674 0 0 1 .39-.869l11.336-4.315a.667.667 0 0 1 .359-.033l46.678 8.423a4.161 4.161 0 0 1 3.951 4.465l-.01 76.286c.164 3.661-1.686 5.144-2.294 5.631a.622.622 0 0 1-.09.061l-7.828 4.425a.671.671 0 0 1-.33.092Z" data-name="Path 77" transform="translate(1445.866 36.015)"/><path id="Path_78" d="M-278.953 208.693a.672.672 0 0 1-.575-.323.673.673 0 0 1 .225-.925l8.641-5.263a.673.673 0 0 1 .925.225.673.673 0 0 1-.225.925l-8.641 5.263a.669.669 0 0 1-.35.098Z" data-name="Path 78" transform="translate(1420.693 31.232)"/><path id="Path_79" fill="#8700c1" stroke="#8700c1" stroke-miterlimit="10" stroke-width=".5" d="m-332.905 274.823-4.729-1.3v-14.3l.046-2.338.077-2.548a17.288 17.288 0 0 1-1.638 1.256l-2.571 1.574-2.28-3.777 7.207-4.354 3.887 1.071Z" data-name="Path 79" transform="translate(1450.75 19.874)"/></g></svg>