<svg xmlns="http://www.w3.org/2000/svg" id="Layer_1" data-name="Layer 1" viewBox="0 0 95.25 95.25"><defs><style>.cls-1{fill:#231f20;stroke:#010101;stroke-miterlimit:10}.cls-2{fill:#7c4098}</style></defs><path d="M86.27 26 69.2 9a7.07 7.07 0 0 0-10 0L11.57 56.62l.67.67 39.93-39.94L77.9 43.07 64.35 56.62l.66.67L86.27 36a7.06 7.06 0 0 0 0-10Zm-.66 9.32-7 7-25.77-25.64 7-7a6.13 6.13 0 0 1 8.66 0l17.11 17.03a6.12 6.12 0 0 1 0 8.65Z" class="cls-1"/><path d="M31.7.5H7.56A7.07 7.07 0 0 0 .5 7.56v56h.94V21.19h36.38v9.37h.94v-23A7.07 7.07 0 0 0 31.7.5ZM1.44 20.25V7.56a6.13 6.13 0 0 1 6.12-6.12H31.7a6.13 6.13 0 0 1 6.12 6.12v12.69Z" class="cls-1"/><path d="M87.69 56.48H7.56A7.07 7.07 0 0 0 .5 63.54v24.15a7.06 7.06 0 0 0 7.05 7.06h80.14a7.07 7.07 0 0 0 7.06-7.06V63.54a7.07 7.07 0 0 0-7.06-7.06ZM1.44 87.69V63.54a6.12 6.12 0 0 1 6.12-6.11h66.5v36.38H7.55a6.12 6.12 0 0 1-6.11-6.12Zm92.37 0a6.13 6.13 0 0 1-6.12 6.12H75V57.43h12.69a6.12 6.12 0 0 1 6.12 6.11Z" class="cls-1"/><path d="M12.7 78a2.81 2.81 0 1 1 2.8-2.8 2.8 2.8 0 0 1-2.8 2.8Zm0-4.66a1.86 1.86 0 1 0 1.86 1.86 1.86 1.86 0 0 0-1.86-1.89Z" class="cls-1"/><path d="M19.96 60.53h14.02V90.7H19.96zM37.79 60.53h14.02V90.7H37.79zM55.62 60.53h14.02V90.7H55.62z" class="cls-2"/></svg>