<svg xmlns="http://www.w3.org/2000/svg" width="91.758" height="83.344" viewBox="0 0 91.758 83.344"><g id="frame" transform="translate(-1487.253 -1037.19)"><path id="Path_215" d="M1513.3 1094.554a1 1 0 0 1-.373-1.928l38.513-15.53a1 1 0 0 1 .746 1.856l-38.513 15.529a1 1 0 0 1-.373.073Z" data-name="Path 215"/><path id="Path_216" d="M1509.147 1120.23c-.091 0-.263.329-.355.3l-20.812-5.865a1 1 0 1 1 .547-1.924l20.533 5.827a1 1 0 0 1 .688 1.235c-.125.442-.165.427-.601.427Z" data-name="Path 216"/><path id="Path_217" d="M1488.253 1114.706a1 1 0 0 1-1-1v-75.516a1 1 0 0 1 1.274-.962l20.041 9.725c.227.065.677.653.805.832.17.239.462.223.375.526a1 1 0 0 1-1.235.689l-19.26-9.486v74.192a1 1 0 0 1-1 1Z" data-name="Path 217"/><path id="Path_218" fill="#8700c1" d="m1508.513 1046.926.274 73.606 70.224-30.665Zm4.881 8.44 55.148 33.51-55.2 24.019Z" data-name="Path 218"/></g></svg>