<svg xmlns="http://www.w3.org/2000/svg" viewBox="0 0 33.54 79.96"><defs><style>.cls-1{fill:#8700c1}</style></defs><g id="Layer_2" data-name="Layer 2"><g id="Layer_1-2" data-name="Layer 1"><path d="M24 .65 8.61.75.91 13.89 7.89 28l16.2-.34 7.79-13.79Zm-7.42 19a5.54 5.54 0 1 1 5.54-5.54 5.54 5.54 0 0 1-5.54 5.5Z" class="cls-1"/><path d="M9 28.8h15.51a1 1 0 0 0 .87-.5l7.73-13.4a1 1 0 0 0 0-1L25.38.5a1 1 0 0 0-.87-.5H9a1 1 0 0 0-.86.5L.43 13.9a1 1 0 0 0 0 1l7.74 13.4a1 1 0 0 0 .83.5ZM9.61 2h14.32l7.16 12.4-7.16 12.4H9.61L2.45 14.4Z"/><path d="M16.77 21.76a7.51 7.51 0 1 0-7.51-7.51 7.52 7.52 0 0 0 7.51 7.51Zm0-13a5.51 5.51 0 1 1-5.51 5.51 5.51 5.51 0 0 1 5.51-5.53ZM0 35.6v10.24a1 1 0 0 0 1 1h8.84V79a1 1 0 0 0 1 1H22.7a1 1 0 0 0 1-1V46.84h8.84a1 1 0 0 0 1-1V35.6a1 1 0 0 0-1-1H1a1 1 0 0 0-1 1Zm11.84 29.24 9.86-2.21v7.59l-9.86 2.22Zm9.86-4.26-9.86 2.21v-7.6L21.7 53ZM11.84 78v-3.51l9.86-2.22V78Zm9.86-27-9.86 2.21v-6.3h9.86ZM2 36.6h29.54v8.24H2Z"/></g></g></svg>