<svg xmlns="http://www.w3.org/2000/svg" width="36" height="36" fill="none" viewBox="0 0 36 36"><circle cx="18.113" cy="18.114" r="15.094" fill="#fff" fill-opacity=".46"/><path fill="#fff" d="M18.113 10.688c2.419 0 2.705.01 3.66.053.883.04 1.362.188 1.682.312.422.164.724.36 1.04.677.318.317.514.62.678 1.042.124.319.272.799.312 1.682.044.955.053 1.241.053 3.66 0 2.417-.01 2.704-.053 3.659-.04.883-.188 1.362-.312 1.681-.164.423-.36.725-.677 1.042a2.806 2.806 0 0 1-1.041.677c-.32.124-.8.272-1.682.312-.955.044-1.241.053-3.66.053-2.418 0-2.704-.01-3.66-.053-.882-.04-1.362-.188-1.681-.312a2.806 2.806 0 0 1-1.041-.677 2.806 2.806 0 0 1-.678-1.041c-.124-.32-.272-.8-.312-1.682-.043-.955-.053-1.242-.053-3.66s.01-2.704.053-3.66c.04-.882.188-1.362.312-1.681.164-.423.36-.725.678-1.041a2.805 2.805 0 0 1 1.04-.678c.32-.124.8-.272 1.683-.312.955-.043 1.241-.053 3.66-.053Zm0-1.631c-2.46 0-2.768.01-3.734.054-.964.044-1.622.197-2.198.421a4.44 4.44 0 0 0-1.604 1.045 4.44 4.44 0 0 0-1.045 1.604c-.224.576-.377 1.234-.42 2.198-.045.966-.055 1.275-.055 3.734 0 2.46.01 2.768.054 3.734.044.964.197 1.622.421 2.199.232.595.541 1.1 1.045 1.604a4.439 4.439 0 0 0 1.604 1.044c.576.224 1.234.377 2.198.421.966.044 1.275.055 3.734.055 2.46 0 2.768-.01 3.734-.055.964-.044 1.623-.197 2.199-.42a4.439 4.439 0 0 0 1.604-1.045 4.438 4.438 0 0 0 1.044-1.604c.224-.576.377-1.235.421-2.199.044-.966.055-1.274.055-3.734s-.01-2.768-.055-3.734c-.044-.964-.197-1.622-.42-2.198a4.439 4.439 0 0 0-1.045-1.604 4.44 4.44 0 0 0-1.604-1.045c-.576-.224-1.235-.377-2.199-.42-.966-.045-1.274-.055-3.734-.055Z"/><path fill="#fff" d="M18.117 13.467a4.65 4.65 0 1 0 0 9.301 4.65 4.65 0 0 0 0-9.301Zm0 7.67a3.019 3.019 0 1 1 0-6.038 3.019 3.019 0 0 1 0 6.037ZM24.038 13.28a1.087 1.087 0 1 1-2.173 0 1.087 1.087 0 0 1 2.173 0Z"/></svg>