<svg width="51" height="40" viewBox="0 0 51 40" fill="none" xmlns="http://www.w3.org/2000/svg">
<g filter="url(#filter0_d_447_55)">
<path d="M30 20C30 21.8385 29.6379 23.659 28.9343 25.3576C28.2307 27.0561 27.1995 28.5995 25.8995 29.8995C24.5995 31.1995 23.0561 32.2308 21.3576 32.9343C19.659 33.6379 17.8385 34 16 34C12.287 34 8.72601 32.525 6.1005 29.8995C3.47499 27.274 2 23.713 2 20C2 16.287 3.47499 12.726 6.1005 10.1005C8.72601 7.475 12.287 6 16 6C17.8385 6 19.659 6.36212 21.3576 7.06569C23.0561 7.76925 24.5995 8.80049 25.8995 10.1005C27.1995 11.4005 28.2307 12.9439 28.9343 14.6424C29.6379 16.341 30 18.1615 30 20Z" fill="#0E6FFF"/>
<path d="M29.125 20C29.125 21.7236 28.7855 23.4303 28.1259 25.0227C27.4663 26.6151 26.4995 28.062 25.2808 29.2808C24.062 30.4995 22.6151 31.4663 21.0227 32.1259C19.4303 32.7855 17.7236 33.125 16 33.125C12.519 33.125 9.18064 31.7422 6.71922 29.2808C4.25781 26.8194 2.875 23.481 2.875 20C2.875 16.519 4.25781 13.1806 6.71922 10.7192C9.18064 8.25781 12.519 6.875 16 6.875C17.7236 6.875 19.4303 7.21449 21.0227 7.87408C22.6151 8.53368 24.062 9.50046 25.2808 10.7192C26.4995 11.938 27.4663 13.3849 28.1259 14.9773C28.7855 16.5697 29.125 18.2764 29.125 20Z" stroke="white" stroke-width="1.75" stroke-linecap="round" stroke-linejoin="round"/>
</g>
<path d="M23 15.3029C23 15.0828 22.9853 14.8627 22.9706 14.6572C22.9119 14.0995 22.8092 13.5712 22.6331 13.0576C22.1194 12.9108 21.5764 12.8228 21.0188 12.7934C20.9161 12.7934 20.8133 12.7787 20.7106 12.7787C18.8321 12.7787 17.1298 13.5272 15.8824 14.7453C15.3834 14.6279 14.8844 14.5692 14.3561 14.5692C12.9326 14.5692 11.6118 14.9947 10.5111 15.7285C10.0562 16.0367 9.63062 16.3889 9.26373 16.7852C9.38114 17.3281 9.55724 17.8418 9.79205 18.3261C10.6432 20.0871 12.2135 21.4226 14.1213 21.9803C14.723 23.7413 15.9998 25.1795 17.6581 25.972C18.1277 26.2068 18.6414 26.3829 19.1697 26.5003C19.5512 26.1334 19.9034 25.7078 20.197 25.2529C20.8867 24.1669 21.2976 22.8901 21.2976 21.5107C21.2976 20.997 21.2389 20.498 21.1362 20.0284C22.2955 18.7957 23 17.1227 23 15.3029ZM13.7544 19.7349C13.7544 19.9551 13.7691 20.1752 13.7838 20.3806C12.419 19.7643 11.3476 18.6343 10.8193 17.2107C11.7732 16.4329 13.006 15.9486 14.3414 15.9486C14.5175 15.9486 14.679 15.9633 14.8551 15.978C14.1653 17.064 13.7544 18.3554 13.7544 19.7349ZM15.2513 20.8062C15.1779 20.454 15.1486 20.1018 15.1486 19.7349C15.1486 18.4435 15.5889 17.2694 16.3226 16.3302C17.8342 16.9026 19.0229 18.1059 19.5659 19.6175C18.612 20.3953 17.3793 20.8796 16.0438 20.8796C15.7796 20.8503 15.5155 20.8356 15.2513 20.8062ZM18.7294 24.93C17.4233 24.4311 16.3667 23.4772 15.7356 22.2444C15.8383 22.2444 15.9411 22.2591 16.0438 22.2591C17.4673 22.2591 18.7881 21.8335 19.8888 21.0997C19.9034 21.2465 19.9034 21.3786 19.9034 21.5253C19.9034 22.8021 19.4779 23.9761 18.7294 24.93ZM17.3939 15.2736C18.3185 14.5838 19.4632 14.1729 20.7106 14.1729C20.9894 14.1729 21.2536 14.1876 21.5031 14.2316C21.5764 14.5838 21.6058 14.936 21.6058 15.3029C21.6058 16.4916 21.2389 17.5923 20.5932 18.4875C19.9181 17.0933 18.7881 15.9486 17.3939 15.2736Z" fill="white"/>
<path d="M14.6201 22.8883C14.6201 22.8883 14.5614 22.3013 13.9303 21.6996C13.2993 21.0979 12.7122 21.0539 12.7122 21.0539C8.61779 20.2907 9.30754 26.4838 9.30754 26.4838C9.30754 26.4838 15.5153 26.9534 14.6201 22.8883ZM10.6283 25.1043C10.6283 25.1043 10.5256 22.1985 12.4334 22.404C12.4334 22.404 12.7122 22.404 12.9911 22.6682C13.2699 22.9323 13.2699 23.2111 13.2699 23.2111C13.5341 25.1043 10.6283 25.1043 10.6283 25.1043Z" fill="white"/>
<g filter="url(#filter1_f_447_55)">
<ellipse cx="28.1256" cy="20.3758" rx="10.2979" ry="7.59705" fill="black" fill-opacity="0.39"/>
</g>
<g filter="url(#filter2_d_447_55)">
<rect x="21" y="6" width="28" height="28" rx="14" fill="white"/>
<g clip-path="url(#clip0_447_55)">
<path d="M35 25.9974C38.3137 25.9974 41 23.3111 41 19.9974C41 16.6837 38.3137 13.9974 35 13.9974C31.6863 13.9974 29 16.6837 29 19.9974C29 23.3111 31.6863 25.9974 35 25.9974Z" fill="white"/>
<path d="M35 14H45.3906C44.3377 12.1757 42.823 10.6608 40.9989 9.60752C39.1748 8.55428 37.1055 7.99985 34.9992 8C32.8928 8.00015 30.8237 8.55486 28.9997 9.60836C27.1757 10.6619 25.6613 12.177 24.6086 14.0015L29.8039 23L29.8086 22.9988C29.2801 22.0875 29.0012 21.0529 29 19.9994C28.9988 18.9458 29.2754 17.9106 29.8018 16.9981C30.3283 16.0855 31.086 15.3279 31.9986 14.8015C32.9112 14.2752 33.9465 13.9987 35 14Z" fill="url(#paint0_linear_447_55)"/>
<path d="M35 24.75C37.6234 24.75 39.75 22.6234 39.75 20C39.75 17.3766 37.6234 15.25 35 15.25C32.3766 15.25 30.25 17.3766 30.25 20C30.25 22.6234 32.3766 24.75 35 24.75Z" fill="#1A73E8"/>
<path d="M40.1957 23.0014L35.0004 32C37.1067 32.0003 39.176 31.446 41.0002 30.3929C42.8244 29.3398 44.3391 27.8249 45.3922 26.0007C46.4452 24.1765 46.9994 22.1072 46.999 20.0008C46.9986 17.8945 46.4437 15.8254 45.39 14.0015H34.9995L34.9982 14.0062C36.0517 14.0041 37.0872 14.2799 38.0002 14.8056C38.9131 15.3313 39.6714 16.0885 40.1984 17.0007C40.7255 17.9129 41.0028 18.9479 41.0023 20.0014C41.0018 21.0549 40.7236 22.0897 40.1957 23.0014Z" fill="url(#paint1_linear_447_55)"/>
<path d="M29.8043 23.0015L24.609 14.003C23.5556 15.827 23.0009 17.8962 23.0009 20.0025C23.0008 22.1089 23.5553 24.1781 24.6086 26.0022C25.6619 27.8263 27.1769 29.3409 29.0012 30.3938C30.8255 31.4466 32.8949 32.0006 35.0013 32L40.1966 23.0014L40.1932 22.998C39.6682 23.9114 38.9117 24.6702 37.9999 25.198C37.0881 25.7258 36.0533 26.0039 34.9998 26.0043C33.9463 26.0046 32.9113 25.7272 31.9991 25.2001C31.087 24.6729 30.3299 23.9146 29.8043 23.0015Z" fill="url(#paint2_linear_447_55)"/>
</g>
</g>
<defs>
<filter id="filter0_d_447_55" x="0" y="6" width="32" height="32" filterUnits="userSpaceOnUse" color-interpolation-filters="sRGB">
<feFlood flood-opacity="0" result="BackgroundImageFix"/>
<feColorMatrix in="SourceAlpha" type="matrix" values="0 0 0 0 0 0 0 0 0 0 0 0 0 0 0 0 0 0 127 0" result="hardAlpha"/>
<feOffset dy="2"/>
<feGaussianBlur stdDeviation="1"/>
<feComposite in2="hardAlpha" operator="out"/>
<feColorMatrix type="matrix" values="0 0 0 0 0 0 0 0 0 0 0 0 0 0 0 0 0 0 0.06 0"/>
<feBlend mode="normal" in2="BackgroundImageFix" result="effect1_dropShadow_447_55"/>
<feBlend mode="normal" in="SourceGraphic" in2="effect1_dropShadow_447_55" result="shape"/>
</filter>
<filter id="filter1_f_447_55" x="5.82776" y="0.778748" width="44.5957" height="39.1941" filterUnits="userSpaceOnUse" color-interpolation-filters="sRGB">
<feFlood flood-opacity="0" result="BackgroundImageFix"/>
<feBlend mode="normal" in="SourceGraphic" in2="BackgroundImageFix" result="shape"/>
<feGaussianBlur stdDeviation="6" result="effect1_foregroundBlur_447_55"/>
</filter>
<filter id="filter2_d_447_55" x="19" y="6" width="32" height="32" filterUnits="userSpaceOnUse" color-interpolation-filters="sRGB">
<feFlood flood-opacity="0" result="BackgroundImageFix"/>
<feColorMatrix in="SourceAlpha" type="matrix" values="0 0 0 0 0 0 0 0 0 0 0 0 0 0 0 0 0 0 127 0" result="hardAlpha"/>
<feOffset dy="2"/>
<feGaussianBlur stdDeviation="1"/>
<feComposite in2="hardAlpha" operator="out"/>
<feColorMatrix type="matrix" values="0 0 0 0 0 0 0 0 0 0 0 0 0 0 0 0 0 0 0.06 0"/>
<feBlend mode="normal" in2="BackgroundImageFix" result="effect1_dropShadow_447_55"/>
<feBlend mode="normal" in="SourceGraphic" in2="effect1_dropShadow_447_55" result="shape"/>
</filter>
<linearGradient id="paint0_linear_447_55" x1="24.6086" y1="15.5" x2="45.3906" y2="15.5" gradientUnits="userSpaceOnUse">
<stop stop-color="#D93025"/>
<stop offset="1" stop-color="#EA4335"/>
</linearGradient>
<linearGradient id="paint1_linear_447_55" x1="33.361" y1="31.8395" x2="43.752" y2="13.8418" gradientUnits="userSpaceOnUse">
<stop stop-color="#FCC934"/>
<stop offset="1" stop-color="#FBBC04"/>
</linearGradient>
<linearGradient id="paint2_linear_447_55" x1="36.2991" y1="31.2507" x2="25.9081" y2="13.253" gradientUnits="userSpaceOnUse">
<stop stop-color="#1E8E3E"/>
<stop offset="1" stop-color="#34A853"/>
</linearGradient>
<clipPath id="clip0_447_55">
<rect width="24" height="24" fill="white" transform="translate(23 8)"/>
</clipPath>
</defs>
</svg>
