<svg xmlns="http://www.w3.org/2000/svg" viewBox="0 0 146.11 86.14"><defs><style>.cls-1{fill:#8800c2}.cls-2{fill:none;stroke:#000;stroke-linecap:round;stroke-linejoin:round;stroke-width:1.41px}</style></defs><g id="Layer_2" data-name="Layer 2"><g id="Layer_1-2" data-name="Layer 1"><path d="m26.84 23.23 59.85 28.71 42.78-5.29-42.2 18.21L12.76 29.4l14.08-6.17z" class="cls-1"/><path d="M59.08.71 145.4 41.4 87.2 70.28 4.48 29.54l17.35-8.77" class="cls-2"/><path d="m4.48 29.54-.22 14.12 82.95 41.77 56.31-30.11 1.88-13.92-57.09 5.84L1.07 5.04 59.08.71" class="cls-2"/><path d="m1.07 5.04-.36 4.3L86.5 51.87l50.32-6.3M86.63 51.87l1.8-4.62" class="cls-2"/><path d="m26.14 22.87-12.9 6.76 73.58 35.46 40.01-18.02M87.21 85.43l-.01-15.15" class="cls-2"/></g></g></svg>