<svg xmlns="http://www.w3.org/2000/svg" width="36" height="36" fill="none" viewBox="0 0 36 36"><circle cx="18.113" cy="18.114" r="15.094" fill="#fff" fill-opacity=".46"/><path fill="#fff" fill-rule="evenodd" d="M27.17 12.309a7.422 7.422 0 0 1-2.134.585 3.726 3.726 0 0 0 1.633-2.056 7.445 7.445 0 0 1-2.359.902 3.716 3.716 0 0 0-6.332 3.39 10.548 10.548 0 0 1-7.66-3.883 3.697 3.697 0 0 0-.502 1.868c0 1.289.655 2.426 1.653 3.093a3.705 3.705 0 0 1-1.684-.465v.046a3.72 3.72 0 0 0 2.98 3.645 3.732 3.732 0 0 1-1.678.063 3.72 3.72 0 0 0 3.472 2.581 7.458 7.458 0 0 1-5.502 1.539 10.52 10.52 0 0 0 5.696 1.67c6.835 0 10.572-5.663 10.572-10.573 0-.161-.003-.322-.01-.48a7.567 7.567 0 0 0 1.855-1.925Z" clip-rule="evenodd"/></svg>